<mxfile host="app.diagrams.net" agent="Mozilla/5.0 (Windows NT 10.0; Win64; x64) AppleWebKit/537.36 (KHTML, like Gecko) Chrome/138.0.0.0 Safari/537.36 Edg/138.0.0.0" version="28.0.7">
  <diagram id="R2lEEEUBdFMjLlhIrx00" name="Page-1">
    <mxGraphModel dx="1415" dy="782" grid="1" gridSize="10" guides="1" tooltips="1" connect="1" arrows="1" fold="1" page="1" pageScale="1" pageWidth="850" pageHeight="1100" math="0" shadow="0" extFonts="Permanent Marker^https://fonts.googleapis.com/css?family=Permanent+Marker">
      <root>
        <mxCell id="0" />
        <mxCell id="1" parent="0" />
        <mxCell id="B3aKzbI6hBscxFm3-y0n-4" style="edgeStyle=orthogonalEdgeStyle;rounded=0;orthogonalLoop=1;jettySize=auto;html=1;endArrow=classic;endFill=1;startArrow=classic;startFill=1;" edge="1" parent="1" source="B3aKzbI6hBscxFm3-y0n-1" target="B3aKzbI6hBscxFm3-y0n-3">
          <mxGeometry relative="1" as="geometry">
            <Array as="points">
              <mxPoint x="160" y="350" />
            </Array>
          </mxGeometry>
        </mxCell>
        <mxCell id="B3aKzbI6hBscxFm3-y0n-5" value="Submit Report / Receive Alerts" style="edgeLabel;html=1;align=center;verticalAlign=middle;resizable=0;points=[];fontSize=15;fontFamily=Times New Roman;" vertex="1" connectable="0" parent="B3aKzbI6hBscxFm3-y0n-4">
          <mxGeometry x="-0.569" y="2" relative="1" as="geometry">
            <mxPoint y="1" as="offset" />
          </mxGeometry>
        </mxCell>
        <mxCell id="B3aKzbI6hBscxFm3-y0n-1" value="User" style="rounded=0;whiteSpace=wrap;html=1;fillColor=none;" vertex="1" parent="1">
          <mxGeometry x="100" y="133" width="120" height="60" as="geometry" />
        </mxCell>
        <mxCell id="B3aKzbI6hBscxFm3-y0n-6" style="edgeStyle=orthogonalEdgeStyle;rounded=0;orthogonalLoop=1;jettySize=auto;html=1;exitX=0.5;exitY=1;exitDx=0;exitDy=0;entryX=1;entryY=0.5;entryDx=0;entryDy=0;startArrow=classic;startFill=1;" edge="1" parent="1" source="B3aKzbI6hBscxFm3-y0n-2" target="B3aKzbI6hBscxFm3-y0n-3">
          <mxGeometry relative="1" as="geometry" />
        </mxCell>
        <mxCell id="B3aKzbI6hBscxFm3-y0n-7" value="Manage Reports / Send Alerts / Manage Users" style="edgeLabel;html=1;align=center;verticalAlign=middle;resizable=0;points=[];fontSize=15;fontFamily=Times New Roman;" vertex="1" connectable="0" parent="B3aKzbI6hBscxFm3-y0n-6">
          <mxGeometry x="-0.5936" relative="1" as="geometry">
            <mxPoint y="-4" as="offset" />
          </mxGeometry>
        </mxCell>
        <mxCell id="B3aKzbI6hBscxFm3-y0n-2" value="Admin" style="rounded=0;whiteSpace=wrap;html=1;fillColor=none;" vertex="1" parent="1">
          <mxGeometry x="460" y="133" width="120" height="60" as="geometry" />
        </mxCell>
        <mxCell id="B3aKzbI6hBscxFm3-y0n-9" value="" style="edgeStyle=orthogonalEdgeStyle;rounded=0;orthogonalLoop=1;jettySize=auto;html=1;startArrow=classic;startFill=1;" edge="1" parent="1" source="B3aKzbI6hBscxFm3-y0n-3" target="B3aKzbI6hBscxFm3-y0n-8">
          <mxGeometry relative="1" as="geometry" />
        </mxCell>
        <mxCell id="B3aKzbI6hBscxFm3-y0n-10" value="Store / Fetch from Database" style="edgeLabel;html=1;align=center;verticalAlign=middle;resizable=0;points=[];fontSize=15;fontFamily=Times New Roman;" vertex="1" connectable="0" parent="B3aKzbI6hBscxFm3-y0n-9">
          <mxGeometry x="0.0984" relative="1" as="geometry">
            <mxPoint as="offset" />
          </mxGeometry>
        </mxCell>
        <mxCell id="B3aKzbI6hBscxFm3-y0n-3" value="Disaster Management and Coordination System" style="rounded=1;whiteSpace=wrap;html=1;fillColor=none;" vertex="1" parent="1">
          <mxGeometry x="260" y="300" width="140" height="90" as="geometry" />
        </mxCell>
        <mxCell id="B3aKzbI6hBscxFm3-y0n-8" value="Database" style="shape=process;whiteSpace=wrap;html=1;backgroundOutline=1;fillColor=none;" vertex="1" parent="1">
          <mxGeometry x="270" y="480" width="120" height="60" as="geometry" />
        </mxCell>
      </root>
    </mxGraphModel>
  </diagram>
</mxfile>
